<svg xmlns="http://www.w3.org/2000/svg" xmlns:xlink="http://www.w3.org/1999/xlink" width="600" height="548.914" viewBox="0 0 600 548.914"><defs><style>.a{fill:none;}.b{fill:url(#a);}.c{fill:url(#b);}.d{clip-path:url(#c);}.e{opacity:0.5;mix-blend-mode:soft-light;}.ad,.ae,.aj,.an,.ap,.e{isolation:isolate;}.f{fill:#fcfdfe;}.g{clip-path:url(#d);}.h{fill:url(#e);}.i{fill:#beb8f2;}.j{fill:url(#f);}.k{clip-path:url(#g);}.l{clip-path:url(#h);}.m{fill:url(#i);}.n{fill:url(#j);}.o{clip-path:url(#k);}.p{fill:url(#l);}.q{fill:url(#m);}.ad,.r{fill:url(#n);}.s{fill:#de8bdf;}.t{fill:#f4f7fa;}.u{fill:#fff;}.v{fill:url(#o);}.w{fill:url(#p);}.x{fill:url(#q);}.y{fill:url(#r);}.z{fill:url(#s);}.aa{fill:url(#t);}.ab{fill:url(#u);}.ac{fill:url(#v);}.ad,.ae,.an{opacity:0.3;}.ad,.ae,.aj,.an,.ap{mix-blend-mode:multiply;}.ae{fill:url(#x);}.af{fill:url(#y);}.ag{fill:url(#z);}.ah{fill:url(#aa);}.ai{fill:url(#ab);}.aj{opacity:0.25;fill:url(#ac);}.ak{fill:url(#ad);}.al{fill:url(#ae);}.am{fill:url(#af);}.an{fill:url(#ag);}.ao{fill:url(#ah);}.ap{opacity:0.4;fill:url(#ai);}.aq{fill:url(#aj);}.ar{fill:url(#ak);}.as{fill:url(#al);}.at{fill:url(#am);}.au{fill:url(#an);}.av{fill:url(#ao);}.aw{fill:url(#ap);}.ax{fill:url(#aq);}.ay{fill:url(#ar);}</style><linearGradient id="a" x1="0.541" y1="0.199" x2="0.342" y2="2.026" gradientUnits="objectBoundingBox"><stop offset="0" stop-color="#d6eafb"/><stop offset="0.995" stop-color="#fff"/><stop offset="1" stop-color="#cce9ff"/></linearGradient><linearGradient id="b" x1="5.777" y1="-0.206" x2="6.617" y2="0.64" gradientUnits="objectBoundingBox"><stop offset="0" stop-color="#ff9085"/><stop offset="1" stop-color="#fb6fbb"/></linearGradient><clipPath id="c"><path class="a" d="M708.68,1015.055l45.242,11.033c4.2-5.764,10.444-16.757,1.689-21.977-12.172-7.258-6.652-30.494-.977-37.775,7.024-9.012,22.948-30.333,4.306-41.85-15.519-9.588-27.492-12.6-23.2-34.615s-4.141-38.547-24.158-42.222c-21.065-3.867-31.105-35.737-50.409-30.792-33.637,8.616-18.9,63.226,13.577,86.161s8.574,30.694,3.122,48.219c-7.443,23.925,26.66,27.013,32.919,38.728C715.7,999.15,711.844,1009.141,708.68,1015.055Z" transform="translate(-642.069 -816.338)"/></clipPath><clipPath id="d"><path class="a" d="M808.382,777.792l-50.043-.17s-9.332-25.7,2.992-43.775c25.146-36.876-8.907-56.326-21.951-66.6-19.669-15.5-30.245-37.743-1.212-47.312s.043-54.612-35.334-75.07c-34.619-20.02-19.008-93.111,59.9-56.661,47.128,21.764,39.566,71.783,41.751,97.948s41.077,28.461,27.658,60.37c-11.466,27.255-33.142,47.085-16.714,65.905S833.49,752.289,808.382,777.792Z" transform="translate(-685.44 -478.169)"/></clipPath><linearGradient id="e" x1="3.283" y1="0.046" x2="2.616" y2="0.99" gradientUnits="objectBoundingBox"><stop offset="0" stop-color="#ffc444"/><stop offset="0.996" stop-color="#f36f56"/></linearGradient><linearGradient id="f" x1="-4.298" y1="-0.148" x2="-3.498" y2="1.061" gradientUnits="objectBoundingBox"><stop offset="0" stop-color="#aa80f9"/><stop offset="0.996" stop-color="#6165d7"/></linearGradient><clipPath id="g"><path class="a" d="M2240.562,939.266l-40.025-10.31s-10.309-29.983,4.483-37.974,9.13-36.785,7.89-52.488c-3.361-42.6,42.682-38.734,42.737-93.836.014-14.654-4.86-42.6,7.5-54.277,14.076-13.3,24.352-.253,33.4-11.373,14.146-17.382,37.1-23.614,50.783-5.728,13.5,17.657-2.9,52.794-43.7,81.037-26.969,23.578-27.391,30.636-25.268,47.824,1.487,12.039,12.972,43.4-3.37,55.928s-28.832,26.058-22.536,39.654C2262.032,918.419,2240.562,939.266,2240.562,939.266Z" transform="translate(-2197.042 -662.547)"/></clipPath><clipPath id="h"><path class="a" d="M2112.288,1309.863l47.75,14.967s16.666-21.677,10.383-42.632c-12.82-42.753,25.519-51,41.06-56.852,23.438-8.83,40.241-26.834,15.461-44.731s16.468-52.069,56.376-60.875c39.052-8.617,46.269-83.008-39.966-72.119-51.5,6.5-59.412,56.463-69.406,80.743s-47.763,14.709-44.616,49.183c2.689,29.447,17.355,54.9-3.993,67.874S2096.066,1277.962,2112.288,1309.863Z" transform="translate(-2103.654 -1046.535)"/></clipPath><linearGradient id="i" x1="3.59" y1="-0.441" x2="3.11" y2="0.577" gradientUnits="objectBoundingBox"><stop offset="0.004" stop-color="#e38ddd"/><stop offset="1" stop-color="#9571f6"/></linearGradient><linearGradient id="j" x1="-0.419" y1="-0.105" x2="0.27" y2="0.855" xlink:href="#e"/><clipPath id="k"><path class="a" d="M2181.645,1765.245l-46.556,1.057c-2.862-6.528-6.6-18.608,3.072-21.827,13.448-4.474,13.048-28.353,9.069-36.686-4.924-10.311-15.9-34.554,4.784-41.8,17.216-6.031,29.558-6.4,30.092-28.823s12.324-36.757,32.66-36.045c21.408.748,38.052-28.222,55.844-19.246,31,15.644,4.881,65.81-31.768,81.233s-14.967,28.136-13.407,46.423c2.13,24.965-31.837,20.656-40.47,30.752C2178.2,1748.2,2179.824,1758.788,2181.645,1765.245Z" transform="translate(-2131.921 -1580.149)"/></clipPath><linearGradient id="l" x1="1.209" y1="0.822" x2="0.353" y2="0.447" gradientUnits="objectBoundingBox"><stop offset="0" stop-color="#444b8c"/><stop offset="0.996" stop-color="#26264f"/></linearGradient><linearGradient id="m" x1="-1.68" y1="1.021" x2="1.472" y2="1.082" xlink:href="#l"/><linearGradient id="n" x1="0" y1="0.5" x2="1" y2="0.5" xlink:href="#b"/><linearGradient id="o" x1="-0.307" y1="-1.128" x2="3.434" y2="6.419" xlink:href="#f"/><linearGradient id="p" x1="-0.342" y1="-2.213" x2="2.051" y2="5.95" xlink:href="#f"/><linearGradient id="q" x1="-0.474" y1="-16.277" x2="1.509" y2="17.876" xlink:href="#f"/><linearGradient id="r" x1="-7.742" y1="-16.296" x2="6.377" y2="12.477" xlink:href="#f"/><linearGradient id="s" x1="-8.159" y1="-17.074" x2="6.076" y2="11.817" xlink:href="#f"/><linearGradient id="t" x1="-8.579" y1="-17.852" x2="5.772" y2="11.156" xlink:href="#f"/><linearGradient id="u" x1="-9.002" y1="-18.63" x2="5.465" y2="10.496" xlink:href="#f"/><linearGradient id="v" x1="-9.428" y1="-19.408" x2="5.155" y2="9.835" xlink:href="#f"/><linearGradient id="x" x1="-0.023" y1="0.5" x2="1.67" y2="0.513" xlink:href="#b"/><linearGradient id="y" x1="0.755" y1="-0.093" x2="1.414" y2="0.432" xlink:href="#f"/><linearGradient id="z" x1="4.869" y1="-0.046" x2="5.83" y2="-0.046" xlink:href="#f"/><linearGradient id="aa" x1="4.91" y1="-0.172" x2="5.871" y2="-0.172" xlink:href="#f"/><linearGradient id="ab" x1="0.281" y1="0.478" x2="1.287" y2="0.478" xlink:href="#l"/><linearGradient id="ac" x1="0.318" y1="0.461" x2="1.314" y2="0.461" xlink:href="#l"/><linearGradient id="ad" x1="4.64" y1="1.662" x2="0.273" y2="0.122" gradientUnits="objectBoundingBox"><stop offset="0" stop-color="#311944"/><stop offset="1" stop-color="#6b3976"/></linearGradient><linearGradient id="ae" x1="1.502" y1="0.886" x2="-0.055" y2="0.094" xlink:href="#ad"/><linearGradient id="af" x1="0.687" y1="0.32" x2="2.025" y2="0.862" xlink:href="#f"/><linearGradient id="ag" x1="0.44" y1="0.272" x2="2.074" y2="0.79" xlink:href="#f"/><linearGradient id="ah" x1="6.68" y1="0.72" x2="6.757" y2="-1.081" xlink:href="#e"/><linearGradient id="ai" x1="0.895" y1="1.085" x2="0.985" y2="-0.674" xlink:href="#e"/><linearGradient id="aj" x1="14.369" y1="0.65" x2="14.324" y2="3.571" xlink:href="#e"/><linearGradient id="ak" x1="9.732" y1="4.249" x2="-0.018" y2="-0.558" xlink:href="#ad"/><linearGradient id="al" x1="0.931" y1="0.061" x2="1.849" y2="0.553" xlink:href="#f"/><linearGradient id="am" x1="2.057" y1="1.335" x2="-0.229" y2="-0.217" xlink:href="#ad"/><linearGradient id="an" x1="2.517" y1="-0.412" x2="2.135" y2="-0.06" xlink:href="#e"/><linearGradient id="ao" x1="1.306" y1="0.149" x2="3.498" y2="0.149" xlink:href="#b"/><linearGradient id="ap" x1="-34.604" y1="-13.652" x2="-32.56" y2="-13.652" xlink:href="#e"/><linearGradient id="aq" x1="-29.38" y1="30.747" x2="-27.326" y2="30.747" xlink:href="#e"/><linearGradient id="ar" x1="3.15" y1="-0.245" x2="2.326" y2="1.055" xlink:href="#f"/></defs><g transform="translate(10616 -12006)"><g transform="translate(-10616 12006)"><g transform="translate(0 0)"><path class="b" d="M365.93,505.52c-26.214,94.8-39.646,216.181,46.634,305.5s368.162,66,470.341-16.026,61.7-270.583,9.392-344.464-121.239-185.619-249.8-101.076S400.266,381.353,365.93,505.52Z" transform="translate(-346.104 -319.186)"/></g></g><g transform="translate(-10584.934 12010.572)"><g transform="translate(37.097 0)"><g transform="translate(0 21.293)"><g transform="translate(0 65.953)"><path class="c" d="M713.007,1001.928q.234.183.471.359a105.381,105.381,0,0,0,34.872,17.185l8.423,1.793c3.974-6.032,6.678-12.48-1.164-17.154-12.172-7.258-6.652-30.494-.977-37.775,7.024-9.012,22.948-30.333,4.306-41.85-15.519-9.588-27.492-12.6-23.2-34.615s-4.141-38.547-24.158-42.222c-21.065-3.867-31.105-35.737-50.409-30.792-33.637,8.616-18.9,63.226,13.577,86.161s8.574,30.694,3.122,48.219c-7.443,23.924,26.66,27.013,32.919,38.728a20.554,20.554,0,0,1,2.213,11.963Z" transform="translate(-642.068 -816.337)"/><g class="d" transform="translate(0.001 0.001)"><g class="e" transform="translate(-8.808 1.254)"><path class="f" d="M753.326,1018.313l1.006.045c3.3-73.7-29.177-148.646-84.767-195.586l-.65.771C724.273,870.286,756.617,944.917,753.326,1018.313Z" transform="translate(-654.869 -822.771)"/><path class="f" d="M1093.281,1433.249l.979.243c6.993-28.137,36.532-44.084,36.829-44.242l-.473-.892C1130.315,1388.519,1100.384,1404.669,1093.281,1433.249Z" transform="translate(-996.464 -1278.045)"/><path class="f" d="M863.148,1568.682l.978-.251c-7.306-28.472-58.254-44.907-58.769-45.07l-.3.962C805.562,1524.487,855.982,1540.753,863.148,1568.682Z" transform="translate(-764.453 -1386.717)"/><path class="f" d="M990.67,1044.443l1-.166c-3.842-23,17.643-51.578,17.861-51.864l-.8-.611C1008.5,992.091,986.753,1021.019,990.67,1044.443Z" transform="translate(-913.487 -958.833)"/><path class="f" d="M651.06,967.165l.721-.707c-18.613-18.961-54.492-19.958-54.853-19.966l-.022,1.006C597.266,947.506,632.739,948.5,651.06,967.165Z" transform="translate(-596.906 -922.36)"/></g></g></g><g transform="translate(8.459 0)"><g class="g" transform="translate(0)"><path class="h" d="M808.382,777.792l-50.043-.17s-9.332-25.7,2.992-43.775c25.146-36.876-8.907-56.326-21.951-66.6-19.669-15.5-28.295-35.476-4.532-48.334,26.886-14.546,3.363-53.591-32.014-74.049-34.619-20.02-19.008-93.111,59.9-56.661,47.127,21.764,39.565,71.783,41.75,97.948s41.077,28.461,27.658,60.37c-11.466,27.255-33.142,47.085-16.714,65.905S833.49,752.289,808.382,777.792Z" transform="translate(-685.44 -478.169)"/><g class="e" transform="translate(-8.688 1.632)"><path class="i" d="M750.834,843.9,749.8,843.7c.12-.641,11.918-65.08,4.352-132.486-6.969-62.1-32.28-139.5-113.271-155.571l.2-1.037c36.054,7.156,64.26,26.846,83.837,58.525,15.638,25.306,25.826,58.276,30.282,97.981C762.778,778.679,750.955,843.252,750.834,843.9Z" transform="translate(-640.876 -541.335)"/><path class="i" d="M1070.152,571.953l-1.048-.134c4.463-34.876-8.662-84.482-8.795-84.98l1.02-.274C1061.463,487.066,1074.64,536.875,1070.152,571.953Z" transform="translate(-978.502 -486.564)"/><path class="i" d="M754.481,754.921C719,732.644,685.734,743.162,685.4,743.271l-.329-1.006c.337-.112,34.048-10.8,69.97,11.759Z" transform="translate(-676.453 -690.281)"/><path class="i" d="M904.467,1323.161c-11.642-49.846-79.34-62.291-80.01-62.357l.035-1.055c.663,0,69.255,12.883,81,63.172Z" transform="translate(-788.65 -1108.942)"/><path class="i" d="M1232.446,1252.655l-1.034-.22c6.76-31.956,41.524-53.842,41.874-54.06l.557.9C1273.5,1199.489,1239.111,1221.144,1232.446,1252.655Z" transform="translate(-1116.232 -1059.539)"/><path class="i" d="M1086.51,1836.4c-1.457-19.39-29.082-34.834-29.361-34.989l.51-.925c1.159.64,28.4,15.871,29.9,35.834Z" transform="translate(-975.958 -1544.212)"/><path class="i" d="M1218.765,1744.533l-1.041-.183c2.639-15.146,25.6-31.952,33.152-37.474,1.067-.78,1.987-1.455,2.128-1.606l.787.7a24.716,24.716,0,0,1-2.287,1.754C1244.038,1713.189,1221.33,1729.805,1218.765,1744.533Z" transform="translate(-1105.214 -1467.567)"/></g></g></g><g transform="translate(302.794 35.955)"><path class="j" d="M2251,897.729c5.507,11.893.259,23.792-4.78,31.8a12.077,12.077,0,0,0-3.11.641c-10.956,2.665-16.094,1.309-27.231,2.115-2.4.174-9.515-1.613-12.38-2.544l-5.306-1.83s-9.416-28.931,5.379-36.923,9.13-36.785,7.89-52.487c-3.365-42.607,42.678-38.734,42.729-93.831.014-14.654-4.861-42.6,7.494-54.277,14.076-13.3,24.352-.253,33.4-11.374,14.146-17.382,37.1-23.614,50.784-5.728,13.5,17.657-2.9,52.794-43.7,81.037-26.969,23.578-27.391,30.636-25.268,47.824,1.487,12.039,12.972,43.4-3.37,55.928S2244.7,884.132,2251,897.729Z" transform="translate(-2195.24 -662.547)"/><g transform="translate(0.35 0)"><g class="k" transform="translate(0)"><g class="e" transform="translate(3.156 -4.3)"><path class="f" d="M2327.424,914.948l-.813-.1c.6-4.849,1.274-9.723,1.988-14.5a513.162,513.162,0,0,1,24.99-99.841,412.613,412.613,0,0,1,34.942-73.107,344.74,344.74,0,0,1,36.32-49.372,276.108,276.108,0,0,1,28.519-27.945c1.688-1.419,3.493-2.776,5.24-4.088,2.326-1.748,4.732-3.556,6.877-5.526l.553.6c-2.175,2-4.6,3.817-6.938,5.581-1.738,1.306-3.533,2.653-5.2,4.061a275.206,275.206,0,0,0-28.433,27.862,343.85,343.85,0,0,0-36.229,49.255,411.763,411.763,0,0,0-34.872,72.961,512.316,512.316,0,0,0-24.95,99.684C2328.7,905.239,2328.03,910.106,2327.424,914.948Z" transform="translate(-2304.496 -640.467)"/><path class="f" d="M2565.4,852.409l-.742-.348c14.939-31.837,1.822-90.662,1.686-91.253l.8-.183C2567.279,761.22,2580.459,820.315,2565.4,852.409Z" transform="translate(-2496.112 -737.193)"/><path class="f" d="M2391.028,1537.929l-.778-.26c7.621-22.826,50.354-40.445,50.784-40.62l.309.759C2440.918,1497.981,2398.53,1515.459,2391.028,1537.929Z" transform="translate(-2355.722 -1329.981)"/><path class="f" d="M2311.4,1508.032l-.811-.118c2.26-15.545-2.961-37.952-14.7-63.094-.591-1.264-.591-1.264-.57-1.419l.812.108-.406-.054.4-.1c.029.091.252.566.511,1.119C2308.436,1469.758,2313.682,1492.329,2311.4,1508.032Z" transform="translate(-2279.295 -1286.759)"/><path class="f" d="M2334.008,1910.513l-.743-.345c7.286-15.694,32.19-21.887,32.44-21.948l.194.8C2365.651,1889.077,2341.127,1895.179,2334.008,1910.513Z" transform="translate(-2309.85 -1644.858)"/><path class="f" d="M2234.908,1879.8c-3.088-13.606-10.183-26.771-21.691-40.245l.623-.532c11.6,13.578,18.749,26.858,21.865,40.6Z" transform="translate(-2213.217 -1605.255)"/><path class="f" d="M2791.5,687.51l-.721-.389c9.292-17.24,15.059-37.509,16.953-44.164.457-1.612.622-2.179.713-2.367l.736.359c-.068.145-.329,1.066-.661,2.232C2806.616,649.862,2800.831,670.192,2791.5,687.51Z" transform="translate(-2678.126 -640.57)"/><path class="f" d="M2693.381,959.595l-.574-.584c13.088-12.883,49.815-12.471,51.372-12.448l-.013.823C2743.787,947.378,2706.224,946.952,2693.381,959.595Z" transform="translate(-2599.265 -886.859)"/></g></g></g></g><g transform="translate(284.93 110.852)"><g class="l" transform="translate(0 0)"><path class="m" d="M2112.288,1309.863l47.75,14.967s16.666-21.677,10.383-42.632c-12.82-42.753,25.519-51,41.06-56.852,23.438-8.83,37.7-25.262,18.938-44.7-21.23-21.995,13-52.1,52.9-60.9,39.052-8.617,46.269-83.008-39.966-72.119-51.5,6.5-59.412,56.463-69.406,80.743s-47.763,14.709-44.616,49.183c2.689,29.447,17.355,54.9-3.993,67.874S2096.066,1277.962,2112.288,1309.863Z" transform="translate(-2103.654 -1046.535)"/><g class="e" transform="translate(10.495 -5.96)"><path class="i" d="M2246.757,1447.869l1.048.129c.08-.65,8.316-65.637,35.906-127.6,25.417-57.087,72.942-123.21,155-114.046l.117-1.049c-36.53-4.079-69.369,6.162-97.607,30.44-22.557,19.395-42.235,47.738-58.489,84.245C2255.089,1382.092,2246.837,1447.218,2246.757,1447.869Z" transform="translate(-2229.341 -1167.672)"/><path class="i" d="M2672.856,1094.7l1.04.189c6.291-34.593,33.8-77.911,34.076-78.344l-.89-.569C2706.8,1016.407,2679.183,1059.9,2672.856,1094.7Z" transform="translate(-2572.333 -1015.972)"/><path class="i" d="M2770.5,1322.406c40.56-10.506,69.084,9.576,69.368,9.78l.618-.857c-.287-.208-29.192-20.584-70.251-9.946Z" transform="translate(-2650.718 -1259.343)"/><path class="i" d="M2351.315,1858.9c26.165-43.994,94.46-35.389,95.119-35.25l.286-1.016c-.633-.2-69.913-8.658-96.312,35.725Z" transform="translate(-2312.775 -1664.682)"/><path class="i" d="M2289.583,1643.5l1.052.1c3.218-32.5-23.3-63.876-23.57-64.19l-.8.687C2266.528,1580.412,2292.757,1611.451,2289.583,1643.5Z" transform="translate(-2245.042 -1469.52)"/><path class="i" d="M2255.886,2295.659c7.252-18.042,38.253-24.411,38.566-24.474l-.207-1.036c-1.3.258-31.874,6.541-39.339,25.117Z" transform="translate(-2235.901 -2025.531)"/><path class="i" d="M2179.193,2124.725l1.048.142c2.064-15.236-14.747-38.2-20.271-45.743-.781-1.067-1.455-1.987-1.542-2.175l-.963.435a24.665,24.665,0,0,0,1.653,2.364C2164.579,2087.207,2181.2,2109.91,2179.193,2124.725Z" transform="translate(-2157.464 -1870.012)"/></g></g></g><g transform="translate(289.944 214.928)"><path class="n" d="M2178.179,1751.493l-.537.25a105.381,105.381,0,0,1-37.75,9.292l-8.613-.058c-2.585-6.744-3.843-13.621,4.821-16.5,13.448-4.475,13.047-28.353,9.069-36.686-4.924-10.31-15.9-34.554,4.784-41.8,17.216-6.031,29.558-6.4,30.092-28.823s12.324-36.758,32.66-36.045c21.408.748,38.052-28.221,55.844-19.246,31,15.644,4.881,65.81-31.768,81.234s-14.968,28.136-13.408,46.423c2.13,24.965-31.837,20.656-40.471,30.752A20.552,20.552,0,0,0,2178.179,1751.493Z" transform="translate(-2129.361 -1580.148)"/><g transform="translate(0.5 0)"><g class="o" transform="translate(0)"><g class="e" transform="translate(10.43 5.288)"><path class="f" d="M2269.508,1780.231l-.994-.172c12.6-72.691,60.425-138.908,124.8-172.811l.47.893C2329.683,1641.9,2282.062,1707.838,2269.508,1780.231Z" transform="translate(-2252.305 -1607.248)"/><path class="f" d="M2212.862,2079.932l-1.007.028c-.785-28.983-26.209-50.9-26.466-51.121l.653-.769C2186.3,2028.291,2212.065,2050.492,2212.862,2079.932Z" transform="translate(-2185.39 -1945.993)"/><path class="f" d="M2283.654,2294.47l-.9-.458c13.251-26.238,66.541-31.345,67.078-31.393l.092,1.006C2349.391,2263.675,2296.654,2268.731,2283.654,2294.47Z" transform="translate(-2263.765 -2134.796)"/><path class="f" d="M2471.336,1738.92l-.937-.376c8.7-21.636-6.152-54.16-6.3-54.49l.915-.424C2465.165,1683.96,2480.193,1716.885,2471.336,1738.92Z" transform="translate(-2409.738 -1668.733)"/><path class="f" d="M2659.181,1746.117l-.549-.845c22.251-14.521,57.507-7.787,57.861-7.717l-.195.991C2715.946,1738.476,2681.085,1731.823,2659.181,1746.117Z" transform="translate(-2566.329 -1710.837)"/></g></g></g></g></g><g transform="translate(85.564)"><path class="p" d="M1355.259,390.875v490.18c0,7.331-6.262,8.908-13.363,9.14l-243.4,12.587-3.687.121a13.291,13.291,0,0,1-13.768-13.34v-507.2a13.29,13.29,0,0,1,13.768-13.34l5,.164,244.286,19C1351.2,388.422,1355.259,383.548,1355.259,390.875Z" transform="translate(-1081.046 -369.018)"/><path class="q" d="M1394.136,390.875v490.18a13.688,13.688,0,0,1-12.9,13.749l-247.545,8.1a13.291,13.291,0,0,1-13.767-13.34v-507.2a13.29,13.29,0,0,1,13.767-13.34l247.545,8.1A13.692,13.692,0,0,1,1394.136,390.875Z" transform="translate(-1112.341 -369.018)"/><path class="r" d="M1421.451,538.392V992.484a12.766,12.766,0,0,1-12.056,12.822l-232.77,7.313a12.4,12.4,0,0,1-12.815-12.442V531.284a12.429,12.429,0,0,1,12.815-12.475L1409.4,525.6a12.731,12.731,0,0,1,12.056,12.794Z" transform="translate(-1147.668 -489.588)"/><path class="s" d="M1820.473,448.13a4.472,4.472,0,0,1-4.6,4.538,4.817,4.817,0,0,1-4.6-4.821,4.471,4.471,0,0,1,4.6-4.538A4.818,4.818,0,0,1,1820.473,448.13Z" transform="translate(-1668.849 -428.816)"/><g transform="translate(47.501 77.674)"><path class="t" d="M1514.751,1835.136l-185.9,2.493a4.191,4.191,0,0,1-4.258-4.2V1792.72a4.294,4.294,0,0,1,4.258-4.289l185.9-1.257a4.062,4.062,0,0,1,4.042,4.117v39.64a4.163,4.163,0,0,1-4.042,4.206Z" transform="translate(-1324.59 -1588.245)"/><path class="t" d="M1514.328,2219.559l-185.035,4.4a4.575,4.575,0,0,1-4.7-4.594v-39.817a4.8,4.8,0,0,1,4.7-4.785l185.035-3.174a4.432,4.432,0,0,1,4.464,4.505v38.775A4.657,4.657,0,0,1,1514.328,2219.559Z" transform="translate(-1324.59 -1897.686)"/><path class="u" d="M1594.635,852.055c0,40.858-32.5,73.986-73,73.993-40.951.006-74.487-33.786-74.487-75.476s33.535-74.809,74.487-73.977C1562.134,777.414,1594.635,811.2,1594.635,852.055Z" transform="translate(-1423.246 -774.758)"/><path class="v" d="M1734.27,918.431a29.927,29.927,0,0,1-30.078,30.2,30.851,30.851,0,0,1-30.282-30.969,29.916,29.916,0,0,1,30.282-30.2A30.86,30.86,0,0,1,1734.27,918.431Z" transform="translate(-1605.781 -864.015)"/><path class="w" d="M1633.081,1309.5a72.182,72.182,0,0,0,46.874-17.2c-4.3-22.258-23.59-39.184-46.874-39.361A48.2,48.2,0,0,0,1585.6,1292.1,73.514,73.514,0,0,0,1633.081,1309.5Z" transform="translate(-1534.69 -1158.213)"/><path class="x" d="M1515.6,1893.085l-101.458,1.107a6.222,6.222,0,0,1-6.278-6.229h0a6.379,6.379,0,0,1,6.278-6.356l101.458-.934a6.1,6.1,0,0,1,6.1,6.144h0a6.248,6.248,0,0,1-6.1,6.268Z" transform="translate(-1391.621 -1663.509)"/><g transform="translate(15.429 290.869)"><path class="y" d="M1419.692,2278.183a8.211,8.211,0,0,1-7.988,8.185,7.814,7.814,0,0,1-8.005-7.858,8.21,8.21,0,0,1,8.005-8.185,7.815,7.815,0,0,1,7.988,7.858Z" transform="translate(-1403.699 -2268.029)"/><path class="z" d="M1573.6,2275.171a8.161,8.161,0,0,1-7.923,8.151,7.767,7.767,0,0,1-7.94-7.827,8.16,8.16,0,0,1,7.94-8.151,7.767,7.767,0,0,1,7.923,7.827Z" transform="translate(-1527.695 -2265.631)"/><path class="aa" d="M1726.269,2272.188a8.112,8.112,0,0,1-7.859,8.117,7.719,7.719,0,0,1-7.875-7.8,8.11,8.11,0,0,1,7.875-8.118,7.72,7.72,0,0,1,7.859,7.8Z" transform="translate(-1650.688 -2263.254)"/><path class="ab" d="M1877.7,2269.228a8.063,8.063,0,0,1-7.8,8.083,7.673,7.673,0,0,1-7.812-7.764,8.062,8.062,0,0,1,7.812-8.083,7.674,7.674,0,0,1,7.8,7.764Z" transform="translate(-1772.687 -2260.896)"/><path class="ac" d="M2027.922,2266.291a8.015,8.015,0,0,1-7.733,8.051,7.628,7.628,0,0,1-7.75-7.734,8.014,8.014,0,0,1,7.75-8.051,7.628,7.628,0,0,1,7.733,7.734Z" transform="translate(-1893.708 -2258.556)"/></g><path class="u" d="M1514.14,920.372a75.293,75.293,0,0,1-53.878-22.641,77.25,77.25,0,0,1-22.414-54.651,75.689,75.689,0,0,1,22.736-54.531,73.84,73.84,0,0,1,53.6-21.259,75.361,75.361,0,0,1,52.954,23.271,77.364,77.364,0,0,1,21.822,54.005,75.866,75.866,0,0,1-21.834,53.589,73.849,73.849,0,0,1-52.978,22.218Zm-1.5-149.47a70.237,70.237,0,0,0-49.508,20.239,72.091,72.091,0,0,0-21.648,51.94,73.646,73.646,0,0,0,21.363,52.1,71.7,71.7,0,0,0,51.3,21.563h.012c39.247-.006,71.185-32.386,71.185-72.182,0-39.813-31.95-72.852-71.221-73.646C1513.622,770.907,1513.127,770.9,1512.639,770.9Z" transform="translate(-1415.76 -767.27)"/></g><path class="ad" d="M1914.88,405.8a13.482,13.482,0,0,0-13.041-13.474l-134.994-4.416c50.073,53.062,61.332,97.583,62.616,128.007,3.669,86.841-71.144,124.676-57.234,219.646,3.813,26.035,12.247,42.386,15.541,87.362a429.075,429.075,0,0,1-3.052,90.921l117.261-3.836a13.687,13.687,0,0,0,12.9-13.749Z" transform="translate(-1633.085 -384.226)"/></g><path class="ae" d="M1194.26,1273.5c1.424-41.83-12.911-59.318-16.709-63.6-2.682-3.025-5.167-5.169-23.716-20.482-13.781-11.376-25.266-20.808-33.417-27.489q-.249,175.775-.5,351.55a437.181,437.181,0,0,1,24.348-100.561C1167,1352.284,1192.434,1327.169,1194.26,1273.5Z" transform="translate(-1026.749 -1007.273)"/></g><g transform="translate(0 125.432)"><path class="af" d="M453.3,1349.831c-3.1-9.1-.929-19.57,3.854-26.886,8.083-12.362,18.618-8.064,29.169-21.774,6.826-8.868,13.037-16.44,20.616-22.111,5.575-4.173,18.768-8.9,23.922-5.618,15.421,9.816-12.873,93.4-44.067,98.153C474.31,1373.5,457.956,1363.515,453.3,1349.831Z" transform="translate(-451.854 -1221.588)"/><g transform="translate(31.163 164.237)"><path class="ag" d="M702.267,2992.847a21.655,21.655,0,0,1,2,7.532,21.3,21.3,0,0,1-.048,3.78c-.906,1.334-5.137,5.916-10.853,7.044-3.536.7-9.268-2.3-2.774-6.355s7.463-5.032,5.555-15.4c-.491-2.669-.3-3.645.121-3.832C697.246,2985.177,700.034,2989.269,702.267,2992.847Z" transform="translate(-672.813 -2764.906)"/><path class="ah" d="M855.8,3033.46a21.664,21.664,0,0,1,2,7.533,21.3,21.3,0,0,1-.048,3.78c-.9,1.333-5.137,5.916-10.853,7.044-3.536.7-9.268-2.3-2.774-6.355s7.463-5.032,5.555-15.4c-.491-2.669-.3-3.645.121-3.832C850.777,3025.79,853.565,3029.882,855.8,3033.46Z" transform="translate(-796.398 -2797.598)"/><path class="ai" d="M702.206,1873.368l6.441,39.22a371.647,371.647,0,0,0-12.782,40.4c-13.383,52.57-21.727,103.2-22.337,139.468l-8.837,3.2c-5.278-19.93-3.683-50.067-8.376-85.6-5.544-41.985-1.774-74.807-3.7-74.922-1.85-.111-7.031,29.938-7.044,64.252-.01,36.273-4.183,65.478-1.493,86.444l-10.589.632c-9.774-27.726-14.045-60.759-18.993-104.439-3.436-30.333-7.492-70.627,12.773-112.2,2.024-4.151,9.088-13.367,10.413-15.644C660.923,1858.61,678.966,1868.926,702.206,1873.368Z" transform="translate(-611.664 -1854.163)"/><path class="aj" d="M705.969,1952.983a371.643,371.643,0,0,1,12.779-40.4l-6.44-39.22c-23.237-4.446-41.283-14.758-64.521-19.2-1.325,2.277-8.389,11.492-10.413,15.644a150.716,150.716,0,0,0-13.15,41.274c44.96-.491,57.971,8.874,61.552,17.5,5.7,13.738-11.64,27.669-5.5,55.472,1.845,8.362,4.6,12.482,4.925,22.956.424,13.746-4.061,15.079-4.764,29.062-.768,15.3-6.067,30.25-3.583,41.1a133.485,133.485,0,0,0,4.744,16.024l2.039-.738C684.242,2056.184,692.588,2005.553,705.969,1952.983Z" transform="translate(-621.767 -1854.163)"/></g><path class="ak" d="M811.044,1014.125c1.442,1.927-.7,4.511-1.127,13.92a66.341,66.341,0,0,0,.354,10.476c.081,2.319.213,4.469.393,6.369.133,1.393.274,2.483.475,3.642a44.513,44.513,0,0,0,1.579,6.338.275.275,0,0,1-.151.338l-.024.009a.274.274,0,0,1-.346-.175,45.063,45.063,0,0,1-1.6-6.416c-.2-1.174-.347-2.275-.48-3.684-.091-1-.176-2.076-.244-3.2a29.643,29.643,0,0,0,.683,10.612c3.2,13.277-7.106,22.018-15.229,22.369-9.367.405-15.717-7.018-17.681-9.447-7.915-9.789-9.439-25.747-1.994-37.418C785.4,1012.576,807.512,1009.4,811.044,1014.125Z" transform="translate(-708.604 -1012.108)"/><path class="al" d="M852.763,1027.771a20.552,20.552,0,0,1,7.753-11.33c10.509-7.2,27.354-1.423,37.012,7.054,10.106,8.874,5.9,15,15.838,24.854,10.791,10.7,18.362,6.025,33.359,16.359,5.9,4.065,21.8,15.017,22.859,32.105.915,14.765-9.524,29.55-22.3,35.256-21.874,9.766-49.267-7.675-62.192-23.714-12.4-15.383-4.032-19.148-21.656-48.858C857.062,1048.754,849.767,1038.861,852.763,1027.771Z" transform="translate(-774.01 -1012.971)"/><path class="am" d="M622.938,1257.519a39.978,39.978,0,0,0-10.772,22.161c-1.959,13.521,3.352,24.548,4.6,27.446,5.893,13.687,3.722,40.666-30.625,98.762,3.265,2.722,14.522,22.866,19.846,13.206,7.258-13.174,40.19-105.839,8.429,3.978-.418,1.447,2.818,1.155,4.29,1.705a103.475,103.475,0,0,0,37.613,6.627,105.743,105.743,0,0,0,48.841-12.843,206.461,206.461,0,0,1-15.375-57.415c-5.266-45.024,5.691-81.331,13.328-100.915-6.964-4.813-29.018-18.755-55.112-14.249C641.5,1247.1,631.355,1249,622.938,1257.519Z" transform="translate(-559.95 -1199.655)"/><path class="an" d="M799.741,1361.144c-5.266-45.024,5.691-81.331,13.328-100.915-6.963-4.813-29.018-18.755-55.112-14.249-6.5,1.123-16.65,3.019-25.063,11.538a39.3,39.3,0,0,0-10.155,18.883c.195-.033.464-.076.783-.121,16.07-2.219,34.631,10.709,40.976,22.939,10.589,20.411-13.77,37.086-13.16,69.432.329,17.486,7.929,38.161,31.162,61.25a107.16,107.16,0,0,0,32.615-11.344,206.467,206.467,0,0,1-15.374-57.414Z" transform="translate(-669.904 -1199.653)"/><path class="ao" d="M840.228,1166.606c-2.287,4.647-4.222,10.46-1.7,14.359,1.536,2.379,4.077,3.7,6.587,4.946,5.932,2.947,8.686,1.75,9.857,3.538,2.577,3.934-4.721,18.953-16.625,20.257-11.846,1.3-22.568-11.609-20.785-17.061,1.609-4.919,13.272-3.377,15.356-9.593,1.049-3.13-.872-6.605-2.562-8.959l-1.4.122Z" transform="translate(-746.076 -1136.473)"/><path class="ap" d="M902.837,1189.449c-1.171-1.788-3.924-.591-9.857-3.539-2.51-1.247-5.052-2.57-6.587-4.946-2.521-3.9-.588-9.711,1.7-14.358l-11.264,7.606,1.4-.122c1.338,1.868,2.8,4.443,2.836,6.99a9.757,9.757,0,0,1,2,1.79,25.826,25.826,0,0,0-2.287,8.116c-.316,2.917-.549,5.085.7,7.136,1.365,2.234,3.7,3.019,5.739,3.7a20.994,20.994,0,0,0,11.553.349C902.616,1197.363,904.284,1191.659,902.837,1189.449Z" transform="translate(-793.941 -1136.474)"/><path class="aq" d="M860.826,1128.9s.394,5.967-5.412,6.966c-7.154,1.23-11.1-17.532-9.536-18.9,1.81-1.588,4.088,1.184,8.61-.669,1.9-.78,3.19-3.61,4.65-1.034,1.661,2.927,1.618,8.615,1.618,8.615s1.464-1.686,2.013-.042C863.475,1125.983,862.048,1127.64,860.826,1128.9Z" transform="translate(-768.752 -1094.286)"/><path class="ar" d="M855.21,1071.124c-2.534,2.1-4.268,6.5-2.916,8.946,1.942,3.51,9.045.791,11.39,5.083,1.028,1.881.705,4.311,1.337,4.336.523.021,1.006-1.636,1.448-2.994,2.444-7.489,4.442-8.151,4.088-10.4C869.837,1071.506,860.412,1066.813,855.21,1071.124Z" transform="translate(-773.811 -1058.242)"/><path class="as" d="M869.521,1319.24c7.892.5,8.684-1.866,17.418,4.532,25.082,18.374,41.352,70.2,16.479,95.249-13.833,13.932-39.078,22.438-60.554,11.8-17.483-8.656-23.932-25.769-25.5-30.352l.864-13.781c9.82,10.594,18.257,13.271,24.376,13.6,10.417.558,14.744-5.659,32.562-6.641,6.942-.382,10.818.311,11.628-1.577,1.673-3.906-13.475-10.2-20.609-21.774C860.987,1361.863,857.834,1347.031,869.521,1319.24Z" transform="translate(-746.076 -1259.309)"/><path class="at" d="M924.808,1119.074c-1.778,1.581,1.127,7.726,7.011,19.953,3.622,7.526,5.432,11.288,6.673,12.963,6.678,9.015,18.739,16.675,31.671,17.291,8.874.424,10.521-2.836,17.626-.877,10.722,2.951,15.994,12.844,16.539,12.408.6-.481-5.22-13.048-18.346-24.385-10.74-9.276-14.14-7.166-31.176-20.237-1.236-.949-6.465-4.985-13.906-9.689C932.152,1120.97,926.577,1117.5,924.808,1119.074Z" transform="translate(-832.144 -1097.905)"/><g transform="translate(22.428 86.524)"><path class="au" d="M568.449,1459.585l18.24,45.124a2.891,2.891,0,0,0,1.836,1.752l21.027,6.679a2.891,2.891,0,0,0,3.67-3.492l-11.241-42.662c-.257-.976-.994-3.143-2.855-3.734l-25.616-7.4C571.23,1455.173,567.623,1457.349,568.449,1459.585Z" transform="translate(-568.038 -1455.723)"/><path class="av" d="M567,1463.094l16.15,43.673a2.893,2.893,0,0,0,1.836,1.753l21.027,6.678a2.891,2.891,0,0,0,3.67-3.492l-11.241-42.662a2.891,2.891,0,0,0-1.973-2.035l-25.937-7.689a2.891,2.891,0,0,0-3.532,3.774Z" transform="translate(-566.818 -1458.518)"/></g><path class="aw" d="M761.215,1641.86,759,1639.8a50.8,50.8,0,0,0-5.511-6.382c-2.368-2.082-4.687-2.5-7.2-.5s-.379,5.318,1.439,8.21c1.106,1.759,4.222,2.875,6.817,3.549,1.824.475,5.018,2.856,5.018,2.856Z" transform="translate(-687.938 -1510.782)"/><path class="ax" d="M556.992,1516.818l2.082-2.2a50.747,50.747,0,0,0,6.426-5.46c2.1-2.351,2.54-4.666.556-7.2s-5.314-.422-8.221,1.372c-1.768,1.091-2.908,4.2-3.6,6.787-.489,1.821-2.9,5-2.9,5Z" transform="translate(-531.933 -1405.483)"/><path class="ay" d="M492.69,1560.184l8.089,4.034c.823,1.05,10.649,13.946,5.4,26.312-.682,1.609-3.261,7.691-8.348,8.768-7.849,1.662-19.285-9.1-18.917-20.649C479.166,1570.908,484.686,1563.8,492.69,1560.184Z" transform="translate(-473.633 -1453.286)"/></g></g></g></svg>